<?xml version="1.0" encoding="utf-8"?>
<!-- Generator: Adobe Illustrator 25.3.0, SVG Export Plug-In . SVG Version: 6.00 Build 0)  -->
<svg version="1.1" id="Layer_1" xmlns="http://www.w3.org/2000/svg" xmlns:xlink="http://www.w3.org/1999/xlink" x="0px" y="0px"
	 viewBox="0 0 240 51.38" style="enable-background:new 0 0 240 51.38;" xml:space="preserve">
<style type="text/css">
	.st0{fill:#808285;}
	.st1{fill:#5CA59A;}
	.st2{fill:#636466;}
</style>
<g>
	<path class="st0" d="M6.22,18.98c3.52,0.34,3.22,1.41,5.72,3.91c3.34,3.33,6.61,3.51,8.94,1.68c-1.4-0.43-3.02-1.59-3.92-2.45
		c-2.53-2.37-3.23-5.52-10.7-3.36C5.93,18.84,6,18.96,6.22,18.98"/>
	<path class="st0" d="M82.6,13.98c-11.37-5.07-23-2.21-32.34,6.15c-9.11,8.14-15.34,17.72-27.56,17.93
		c9.35,3.25,27.8,2.03,37.92-8.09c0.27-0.28,0.06-0.24-0.11-0.15c-5.85,3.55-15.12,5.29-19.11,3.98
		C52,26.95,60.46,14.95,82.55,14.44C83.37,14.35,83.33,14.31,82.6,13.98"/>
	<path class="st0" d="M21.84,32.65c-2.07,0.03-4.2-1.13-5.46-1.98c-1.84-1.23-3.14-3.01-4.56-4.41c-2.33-2.29-6.23-3.99-11.57-1.86
		c-0.29,0.12-0.35,0.26-0.06,0.27c4.9,0.25,4.73,0.84,8.84,5.41C11.82,33.17,19.22,34.04,21.84,32.65"/>
	<path class="st1" d="M72.82,8.2c-1.74-1.03-8.24-4.37-14.59-3.71c-3.28,0.34-6.15,1.21-9.03,3.28c-1.36,0.87-2.3,1.54-3.12,2.15v0
		c-0.07,0.05-0.38,0.29-0.48,0.36c-2.6,1.93-4.88,2.89-6.2,3.32c-0.47,0.14-0.88,0.26-1.2,0.34c4.26-5.45,8.85-10.67,14.51-12.89
		c0.18-0.07,0.17-0.29-0.01-0.34c-6.88-1.73-14.09-0.76-19.76,7.97c-6.47,9.93-10.33,21.78-19.26,17.5
		c5.52,5.26,12.33,2.98,18.19-4.11c0.82-1.01,1.66-2.06,2.48-3.13l0.98-1.27c2.79-0.21,4.85-0.88,6.02-1.38l-1.93,2.65
		c-6.41,8.79-15,19.33-27.77,14.12c14.74,9.8,25.76-4.3,31.23-9.45c6.78-6.37,13.59-14.52,29.96-14.97
		C73.21,8.63,73.48,8.59,72.82,8.2"/>
	<path class="st2" d="M155.33,22.31c-0.75-0.39-1.35-0.75-1.8-1.09c-0.46-0.33-0.95-0.75-1.49-1.25c-0.57-0.54-1.01-1.01-1.32-1.41
		c-0.29-0.4-0.51-0.73-0.64-0.99c-0.12,0.3-0.35,0.67-0.7,1.12c-0.35,0.44-0.85,0.97-1.48,1.58c-0.53,0.53-1.06,0.99-1.61,1.41
		c-0.57,0.42-1.24,0.84-2.04,1.27l-2.04-2.06c0.98-0.6,1.9-1.26,2.75-2c0.84-0.74,1.52-1.51,2.02-2.31
		c0.41-0.67,0.74-1.46,0.99-2.38c0.26-0.92,0.37-1.89,0.37-2.91V9.28h3.46v2.2c0,0.93,0.12,1.85,0.35,2.77
		c0.24,0.92,0.56,1.7,0.97,2.35c0.43,0.67,0.99,1.31,1.7,1.92c0.71,0.61,1.51,1.15,2.4,1.61L155.33,22.31z"/>
	<path class="st2" d="M157.46,31.62c-0.72,0.61-1.55,0.91-2.5,0.91c-0.96,0-1.77-0.3-2.44-0.91c-0.67-0.6-1-1.33-1-2.18
		c0-0.87,0.35-1.61,1.05-2.21c0.7-0.61,1.53-0.91,2.48-0.91c0.96,0,1.77,0.29,2.45,0.91c0.69,0.6,1.03,1.34,1.03,2.21
		C158.53,30.29,158.17,31.02,157.46,31.62 M160.21,25.32c-1.4-1.13-3.11-1.7-5.15-1.7c-2.01,0-3.72,0.56-5.13,1.7
		c-1.4,1.13-2.1,2.51-2.1,4.12c0,1.6,0.7,2.96,2.1,4.09c1.41,1.13,3.12,1.7,5.13,1.7c2.04,0,3.75-0.57,5.15-1.7
		c1.39-1.13,2.09-2.5,2.09-4.09C162.3,27.83,161.6,26.44,160.21,25.32"/>
	<polygon class="st2" points="159.62,8.72 162.86,8.72 162.86,23.9 159.62,23.9 159.62,15.77 155.1,15.77 155.1,13.07 159.62,13.07 
			"/>
	<path class="st2" d="M185.16,8.72h3.23v14.84h-3.23V8.72z M176.75,31.24h8.3v-3.89h-8.3V31.24z M173.48,24.73h14.83v9.14h-14.83
		V24.73z M181.09,22c-0.72-0.37-1.34-0.73-1.83-1.08c-0.49-0.35-0.97-0.75-1.44-1.2c-0.57-0.55-1.02-1.04-1.33-1.43
		c-0.33-0.4-0.53-0.74-0.68-1.02c-0.09,0.26-0.32,0.62-0.71,1.08c-0.38,0.47-0.81,0.96-1.3,1.45c-0.54,0.54-1.1,1.04-1.7,1.49
		c-0.59,0.46-1.29,0.91-2.11,1.35l-2.04-2.07c1.05-0.64,1.99-1.36,2.85-2.14c0.86-0.78,1.53-1.59,2.04-2.45
		c0.37-0.63,0.67-1.39,0.91-2.29c0.23-0.91,0.35-1.81,0.35-2.71V9.28h3.46v1.9c0,0.85,0.12,1.72,0.35,2.6
		c0.23,0.88,0.52,1.65,0.88,2.3c0.43,0.73,1,1.41,1.72,2.06c0.71,0.65,1.54,1.21,2.47,1.69L181.09,22z"/>
	<path class="st2" d="M202.53,19.72h-4.75v-3.7h4.75V19.72z M202.53,9.62v3.81h-4.75V9.62h-3.23v12.72h11.21V9.62H202.53z"/>
	<path class="st2" d="M208.52,31.62c-0.7,0.61-1.53,0.91-2.48,0.91c-0.95,0-1.75-0.3-2.42-0.91c-0.67-0.6-0.99-1.33-0.99-2.18
		c0-0.87,0.35-1.61,1.04-2.21c0.71-0.61,1.51-0.91,2.47-0.91c0.95,0,1.76,0.29,2.44,0.91c0.67,0.6,1.01,1.34,1.01,2.21
		C209.59,30.29,209.23,31.02,208.52,31.62 M211.25,25.32c-1.39-1.13-3.09-1.7-5.11-1.7c-1.99,0-3.7,0.56-5.09,1.7
		c-1.4,1.13-2.09,2.51-2.09,4.12c0,1.6,0.7,2.96,2.09,4.09c1.39,1.13,3.1,1.7,5.09,1.7c2.02,0,3.72-0.57,5.11-1.7
		c1.38-1.13,2.08-2.5,2.08-4.09C213.33,27.83,212.63,26.44,211.25,25.32"/>
	<polygon class="st2" points="210.64,8.72 213.88,8.72 213.88,23.98 210.64,23.98 210.64,19.86 206.74,19.86 206.74,17.27 
		210.64,17.27 210.64,14.91 206.82,14.91 206.82,12.32 210.64,12.32 	"/>
	<path class="st2" d="M90.45,21.72c1.11-0.48,2.18-1.06,3.21-1.71c1.03-0.66,1.96-1.39,2.78-2.2c0.81-0.79,1.49-1.64,2.03-2.55
		c0.55-0.91,0.88-1.85,1.02-2.83h-7.71V9.77h11.68c-0.13,1.61-0.46,3.12-0.98,4.52c-0.52,1.39-1.24,2.67-2.14,3.84
		c-0.96,1.24-2.11,2.34-3.46,3.3c-1.35,0.96-2.86,1.78-4.53,2.44L90.45,21.72z"/>
	<path class="st2" d="M105.01,31.58c-0.71,0.61-1.56,0.92-2.51,0.92c-0.96,0-1.78-0.3-2.46-0.92c-0.68-0.61-1.01-1.35-1.01-2.21
		c0-0.88,0.35-1.63,1.06-2.24c0.71-0.6,1.54-0.92,2.5-0.92c0.96,0,1.79,0.31,2.47,0.92c0.69,0.61,1.03,1.36,1.03,2.24
		C106.09,30.24,105.73,30.97,105.01,31.58 M107.78,25.21c-1.41-1.14-3.13-1.72-5.19-1.72c-2.03,0-3.75,0.58-5.16,1.72
		c-1.42,1.14-2.13,2.54-2.13,4.16c0,1.61,0.71,2.99,2.13,4.13c1.41,1.15,3.14,1.72,5.16,1.72c2.05,0,3.78-0.58,5.19-1.72
		c1.4-1.14,2.11-2.52,2.11-4.13C109.89,27.75,109.18,26.35,107.78,25.21"/>
	<polygon class="st2" points="113.71,14.21 113.71,16.97 110.17,16.97 110.17,23.35 106.91,23.35 106.91,8.47 110.17,8.47 
		110.17,14.21 	"/>
	<path class="st2" d="M130.12,31.75c-0.71,0.58-1.55,0.86-2.54,0.86c-0.96,0-1.79-0.29-2.47-0.87c-0.68-0.58-1.03-1.27-1.03-2.08
		c0-0.84,0.35-1.55,1.06-2.13c0.71-0.57,1.55-0.86,2.53-0.86c0.99,0,1.82,0.29,2.49,0.87c0.67,0.59,1.01,1.28,1.01,2.11
		C131.18,30.48,130.83,31.18,130.12,31.75 M132.85,25.7c-1.42-1.09-3.14-1.64-5.17-1.64c-2.01,0-3.73,0.55-5.16,1.64
		c-1.42,1.1-2.14,2.42-2.14,3.95c0,1.52,0.71,2.82,2.14,3.93c1.43,1.1,3.15,1.65,5.16,1.65c2.04,0,3.76-0.55,5.17-1.65
		c1.41-1.1,2.12-2.4,2.12-3.93C134.97,28.12,134.26,26.8,132.85,25.7 M129.19,20.57v-2.4h5.68v-2.61h-11.35v-3.57h11.09v-2.7H120.3
		v8.89h5.68v2.4h-10.1v2.67h23.38v-2.67H129.19z"/>
	<path class="st2" d="M231,26v-2.45h5.28V8.75h3.27v19.33h-3.27V26H231z M228.21,27.29v4.11h11.5v2.73h-14.79v-6.84H228.21z
		 M228.61,12.26c-0.6-0.57-1.26-0.86-1.97-0.86c-0.7,0-1.35,0.28-1.96,0.86c-0.61,0.57-0.91,1.27-0.91,2.09
		c0,0.81,0.3,1.5,0.91,2.07c0.61,0.57,1.26,0.86,1.96,0.86c0.71,0,1.37-0.29,1.97-0.86c0.6-0.57,0.9-1.26,0.9-2.07
		C229.51,13.53,229.21,12.83,228.61,12.26 M222.22,10.37c1.21-1.1,2.69-1.65,4.42-1.65c1.73,0,3.19,0.55,4.42,1.65
		c1.22,1.09,1.83,2.42,1.83,3.98c0,1.54-0.64,2.83-1.91,3.87c-1.28,1.05-2.72,1.56-4.33,1.56c-1.64,0-3.08-0.51-4.35-1.56
		c-1.26-1.04-1.9-2.33-1.9-3.87C220.39,12.79,221.01,11.47,222.22,10.37 M224.16,22.93l-5.68,0.03V20.4h4.7
		c1.89,0,4.07-0.08,6.52-0.22c2.46-0.15,4.35-0.3,5.66-0.45v2.5c-0.72,0.1-1.74,0.19-3.05,0.3c-1.3,0.1-2.65,0.2-4.06,0.29v3.4
		h-3.35v-3.28H224.16z"/>
	<g>
		<path class="st2" d="M91.53,40.28h1.08v4.09h0.04c0.22-0.33,0.44-0.63,0.66-0.91l2.55-3.18h1.34l-3.02,3.6l3.25,4.88h-1.27
			l-2.73-4.16l-0.8,0.93v3.23h-1.08V40.28z"/>
	</g>
	<g>
		<path class="st2" d="M100.95,45.65c-1.19-0.03-2.54,0.19-2.54,1.37c0,0.73,0.47,1.06,1.01,1.06c0.79,0,1.3-0.5,1.47-1.02
			c0.04-0.11,0.05-0.24,0.05-0.35V45.65z M102.01,47.3c0,0.53,0.02,1.04,0.09,1.46h-0.98l-0.1-0.77h-0.04
			c-0.32,0.48-0.98,0.91-1.83,0.91c-1.21,0-1.83-0.87-1.83-1.75c0-1.47,1.29-2.28,3.6-2.26v-0.13c0-0.5-0.14-1.42-1.36-1.41
			c-0.57,0-1.15,0.16-1.57,0.45l-0.25-0.74c0.49-0.31,1.22-0.53,1.98-0.53c1.84,0,2.29,1.27,2.29,2.49V47.3z"/>
	</g>
	<g>
		<path class="st2" d="M103.14,44.32c0-0.64-0.01-1.14-0.05-1.65h0.96l0.06,0.99h0.02c0.3-0.57,0.99-1.13,1.98-1.13
			c0.83,0,2.11,0.5,2.11,2.59v3.63h-1.09v-3.51c0-0.98-0.36-1.81-1.39-1.81c-0.7,0-1.26,0.52-1.46,1.13
			c-0.05,0.14-0.07,0.34-0.07,0.52v3.67h-1.09V44.32z"/>
	</g>
	<g>
		<path class="st2" d="M113.42,45.06c0-0.18-0.01-0.34-0.06-0.49c-0.2-0.65-0.72-1.18-1.52-1.18c-1.04,0-1.78,0.89-1.78,2.31
			c0,1.18,0.61,2.19,1.77,2.19c0.68,0,1.29-0.43,1.51-1.14c0.06-0.18,0.09-0.39,0.09-0.59V45.06z M114.51,47.86
			c0,1.41-0.29,2.25-0.85,2.79c-0.59,0.54-1.43,0.73-2.19,0.73c-0.72,0-1.51-0.18-1.99-0.5l0.27-0.86c0.39,0.26,1.01,0.49,1.76,0.49
			c1.11,0,1.93-0.59,1.93-2.14v-0.67h-0.02c-0.32,0.57-0.98,1.02-1.9,1.02c-1.49,0-2.55-1.28-2.55-2.98c0-2.06,1.32-3.22,2.71-3.22
			c1.04,0,1.6,0.54,1.87,1.04h0.03l0.04-0.9h0.96c-0.04,0.43-0.05,0.92-0.05,1.66V47.86z"/>
	</g>
	<g>
		<path class="st2" d="M119.77,45.15c0-0.15-0.01-0.33-0.05-0.48c-0.16-0.69-0.75-1.27-1.57-1.27c-1.13,0-1.79,1.01-1.79,2.34
			c0,1.24,0.61,2.26,1.77,2.26c0.73,0,1.4-0.5,1.59-1.32c0.04-0.15,0.05-0.3,0.05-0.48V45.15z M120.86,39.83v7.35
			c0,0.54,0.01,1.16,0.05,1.57h-0.98l-0.05-1.06h-0.03c-0.33,0.68-1.05,1.19-2.03,1.19c-1.45,0-2.57-1.24-2.57-3.09
			c-0.01-2.04,1.24-3.27,2.68-3.27c0.93,0,1.55,0.44,1.81,0.92h0.02v-3.62H120.86z"/>
	</g>
	<g>
		<path class="st2" d="M124.52,48.06c1.04,0,1.82-0.99,1.82-2.37c0-1.03-0.51-2.33-1.79-2.33c-1.27,0-1.83,1.21-1.83,2.36
			c0,1.33,0.74,2.34,1.79,2.34H124.52z M124.48,48.89c-1.61,0-2.87-1.21-2.87-3.13c0-2.04,1.32-3.23,2.97-3.23
			c1.72,0,2.88,1.27,2.88,3.12c0,2.26-1.55,3.24-2.97,3.24H124.48z"/>
	</g>
	<g>
		<path class="st2" d="M128.22,44.32c0-0.64-0.01-1.14-0.05-1.65h0.96l0.06,0.99h0.02c0.3-0.57,0.99-1.13,1.98-1.13
			c0.83,0,2.11,0.5,2.11,2.59v3.63h-1.09v-3.51c0-0.98-0.36-1.81-1.38-1.81c-0.71,0-1.26,0.52-1.46,1.13
			c-0.05,0.14-0.07,0.34-0.07,0.52v3.67h-1.09V44.32z"/>
	</g>
	<g>
		<path class="st2" d="M138.5,45.06c0-0.18-0.01-0.34-0.06-0.49c-0.2-0.65-0.72-1.18-1.52-1.18c-1.04,0-1.78,0.89-1.78,2.31
			c0,1.18,0.61,2.19,1.77,2.19c0.68,0,1.29-0.43,1.51-1.14c0.06-0.18,0.09-0.39,0.09-0.59V45.06z M139.59,47.86
			c0,1.41-0.28,2.25-0.85,2.79c-0.59,0.54-1.43,0.73-2.19,0.73c-0.72,0-1.51-0.18-1.99-0.5l0.27-0.86c0.4,0.26,1.01,0.49,1.76,0.49
			c1.11,0,1.93-0.59,1.93-2.14v-0.67h-0.02c-0.32,0.57-0.98,1.02-1.91,1.02c-1.48,0-2.55-1.28-2.55-2.98c0-2.06,1.32-3.22,2.71-3.22
			c1.04,0,1.59,0.54,1.87,1.04h0.03l0.04-0.9h0.96c-0.04,0.43-0.05,0.92-0.05,1.66V47.86z"/>
	</g>
	<g>
		<path class="st2" d="M142.67,47.42c0.48,0.31,1.17,0.55,1.92,0.55c1.1,0,1.74-0.58,1.74-1.45c0-0.78-0.44-1.24-1.57-1.67
			c-1.36-0.5-2.2-1.23-2.2-2.41c0-1.32,1.08-2.3,2.7-2.3c0.84,0,1.47,0.2,1.83,0.41l-0.3,0.89c-0.26-0.16-0.82-0.4-1.57-0.4
			c-1.14,0-1.57,0.69-1.57,1.27c0,0.79,0.51,1.18,1.66,1.63c1.41,0.57,2.11,1.24,2.11,2.49c0,1.31-0.94,2.45-2.91,2.45
			c-0.8,0-1.68-0.25-2.13-0.55L142.67,47.42z"/>
	</g>
	<g>
		<path class="st2" d="M151.47,45.65c-1.19-0.03-2.54,0.19-2.54,1.37c0,0.73,0.47,1.06,1.02,1.06c0.79,0,1.3-0.5,1.47-1.02
			c0.04-0.11,0.05-0.24,0.05-0.35V45.65z M152.53,47.3c0,0.53,0.02,1.04,0.09,1.46h-0.98l-0.1-0.77h-0.04
			c-0.32,0.48-0.98,0.91-1.83,0.91c-1.21,0-1.83-0.87-1.83-1.75c0-1.47,1.29-2.28,3.6-2.26v-0.13c0-0.5-0.14-1.42-1.36-1.41
			c-0.57,0-1.15,0.16-1.57,0.45l-0.25-0.74c0.5-0.31,1.23-0.53,1.98-0.53c1.84,0,2.29,1.27,2.29,2.49V47.3z"/>
	</g>
	<g>
		<path class="st2" d="M157.93,48.54c-0.28,0.14-0.91,0.35-1.72,0.35c-1.81,0-2.98-1.24-2.98-3.12c0-1.87,1.26-3.24,3.22-3.24
			c0.64,0,1.21,0.16,1.51,0.33l-0.25,0.84c-0.26-0.14-0.67-0.29-1.26-0.29c-1.37,0-2.12,1.04-2.12,2.31c0,1.41,0.89,2.27,2.08,2.27
			c0.62,0,1.03-0.15,1.34-0.29L157.93,48.54z"/>
	</g>
	<g>
		<path class="st2" d="M158.6,44.57c0-0.72-0.01-1.33-0.05-1.9h0.95l0.05,1.19h0.04c0.27-0.82,0.94-1.33,1.67-1.33
			c0.11,0,0.2,0.01,0.3,0.04v1.03c-0.12-0.01-0.24-0.02-0.38-0.02c-0.77,0-1.31,0.59-1.46,1.41c-0.02,0.16-0.04,0.34-0.04,0.53v3.24
			h-1.09L158.6,44.57z"/>
	</g>
	<g>
		<path class="st2" d="M165.73,45.11c0.01-0.69-0.29-1.8-1.5-1.8c-1.11,0-1.58,1.03-1.67,1.8H165.73z M162.56,45.9
			c0.02,1.5,0.95,2.11,2.04,2.11c0.78,0,1.26-0.14,1.66-0.3l0.2,0.78c-0.38,0.18-1.05,0.39-2,0.39c-1.83,0-2.94-1.24-2.94-3.07
			c0-1.85,1.08-3.29,2.82-3.29c1.95,0,2.46,1.75,2.46,2.87c0,0.23-0.01,0.4-0.04,0.53L162.56,45.9z"/>
	</g>
	<g>
		<path class="st2" d="M171.6,45.15c0-0.15-0.01-0.33-0.05-0.48c-0.16-0.69-0.75-1.27-1.57-1.27c-1.13,0-1.79,1.01-1.79,2.34
			c0,1.24,0.61,2.26,1.77,2.26c0.73,0,1.4-0.5,1.6-1.32c0.04-0.15,0.05-0.3,0.05-0.48V45.15z M172.69,39.83v7.35
			c0,0.54,0.01,1.16,0.05,1.57h-0.98l-0.05-1.06h-0.02c-0.33,0.68-1.05,1.19-2.03,1.19c-1.45,0-2.57-1.24-2.57-3.09
			c-0.01-2.04,1.24-3.27,2.69-3.27c0.93,0,1.55,0.44,1.8,0.92h0.03v-3.62H172.69z"/>
	</g>
	<g>
		<polygon class="st2" points="177,40.28 177,43.83 181.03,43.83 181.03,40.28 182.12,40.28 182.12,48.76 181.03,48.76 
			181.03,44.78 177,44.78 177,48.76 175.91,48.76 175.91,40.28 		"/>
	</g>
	<g>
		<path class="st2" d="M187.14,45.11c0.01-0.69-0.29-1.8-1.5-1.8c-1.11,0-1.58,1.03-1.67,1.8H187.14z M183.96,45.9
			c0.02,1.5,0.95,2.11,2.04,2.11c0.78,0,1.26-0.14,1.66-0.3l0.2,0.78c-0.38,0.18-1.05,0.39-2,0.39c-1.83,0-2.94-1.24-2.94-3.07
			c0-1.85,1.08-3.29,2.82-3.29c1.95,0,2.46,1.75,2.46,2.87c0,0.23-0.01,0.4-0.04,0.53L183.96,45.9z"/>
	</g>
	<g>
		<path class="st2" d="M192.08,45.65c-1.19-0.03-2.53,0.19-2.53,1.37c0,0.73,0.47,1.06,1.01,1.06c0.79,0,1.3-0.5,1.47-1.02
			c0.04-0.11,0.05-0.24,0.05-0.35V45.65z M193.14,47.3c0,0.53,0.02,1.04,0.09,1.46h-0.98l-0.1-0.77h-0.04
			c-0.32,0.48-0.98,0.91-1.83,0.91c-1.21,0-1.83-0.87-1.83-1.75c0-1.47,1.29-2.28,3.6-2.26v-0.13c0-0.5-0.14-1.42-1.36-1.41
			c-0.57,0-1.15,0.16-1.57,0.45l-0.25-0.74c0.5-0.31,1.22-0.53,1.98-0.53c1.84,0,2.29,1.27,2.29,2.49V47.3z"/>
	</g>
	<g>
		<path class="st2" d="M194.28,44.57c0-0.72-0.01-1.33-0.05-1.9h0.95l0.05,1.19h0.04c0.27-0.82,0.94-1.33,1.67-1.33
			c0.11,0,0.2,0.01,0.3,0.04v1.03c-0.12-0.01-0.24-0.02-0.38-0.02c-0.77,0-1.31,0.59-1.46,1.41c-0.02,0.16-0.04,0.34-0.04,0.53v3.24
			h-1.09L194.28,44.57z"/>
	</g>
	<g>
		<path class="st2" d="M199.3,41.21v1.46h1.56v0.84h-1.56v3.28c0,0.76,0.21,1.18,0.82,1.18c0.3,0,0.47-0.03,0.63-0.07l0.05,0.84
			c-0.21,0.08-0.54,0.15-0.96,0.15c-0.51,0-0.92-0.18-1.18-0.47c-0.3-0.34-0.42-0.88-0.42-1.6v-3.32h-0.93v-0.84h0.93v-1.12
			L199.3,41.21z"/>
	</g>
	<g>
		<polygon class="st2" points="204.59,40.28 204.59,43.83 208.62,43.83 208.62,40.28 209.71,40.28 209.71,48.76 208.62,48.76 
			208.62,44.78 204.59,44.78 204.59,48.76 203.5,48.76 203.5,40.28 		"/>
	</g>
	<g>
		<path class="st2" d="M213.41,48.06c1.04,0,1.82-0.99,1.82-2.37c0-1.03-0.51-2.33-1.79-2.33c-1.27,0-1.83,1.21-1.83,2.36
			c0,1.33,0.74,2.34,1.79,2.34H213.41z M213.37,48.89c-1.61,0-2.87-1.21-2.87-3.13c0-2.04,1.32-3.23,2.97-3.23
			c1.72,0,2.88,1.27,2.88,3.12c0,2.26-1.55,3.24-2.97,3.24H213.37z"/>
	</g>
	<g>
		<path class="st2" d="M216.96,47.64c0.33,0.2,0.9,0.43,1.45,0.43c0.78,0,1.15-0.39,1.15-0.91c0-0.53-0.31-0.82-1.1-1.12
			c-1.09-0.4-1.6-0.99-1.6-1.72c0-0.98,0.79-1.78,2.07-1.78c0.61,0,1.14,0.16,1.46,0.38l-0.26,0.79c-0.23-0.14-0.67-0.35-1.23-0.35
			c-0.64,0-0.99,0.38-0.99,0.83c0,0.52,0.35,0.74,1.12,1.04c1.03,0.39,1.57,0.92,1.57,1.83c0,1.08-0.83,1.84-2.23,1.84
			c-0.66,0-1.26-0.18-1.68-0.43L216.96,47.64z"/>
	</g>
	<g>
		<path class="st2" d="M222.48,46.28c0,0.15,0.01,0.32,0.05,0.45c0.18,0.77,0.85,1.29,1.62,1.29c1.15,0,1.82-0.96,1.82-2.35
			c0-1.22-0.62-2.26-1.77-2.26c-0.74,0-1.45,0.53-1.66,1.36c-0.03,0.15-0.06,0.32-0.06,0.45V46.28z M221.39,44.66
			c0-0.78-0.01-1.41-0.05-1.99h0.98l0.06,1.04h0.03c0.43-0.75,1.15-1.18,2.11-1.18c1.46,0,2.55,1.25,2.55,3.09
			c0,2.19-1.32,3.27-2.72,3.27c-0.81,0-1.48-0.35-1.84-0.96h-0.02v3.31h-1.09V44.66z"/>
	</g>
	<g>
		<path class="st2" d="M227.81,42.67h1.09v6.08h-1.09V42.67z M228.33,41.55c-0.41,0-0.68-0.33-0.68-0.72s0.28-0.7,0.71-0.7
			c0.42,0,0.69,0.31,0.69,0.7s-0.27,0.72-0.71,0.72H228.33z"/>
	</g>
	<g>
		<path class="st2" d="M231.4,41.21v1.46h1.56v0.84h-1.56v3.28c0,0.76,0.21,1.18,0.82,1.18c0.3,0,0.47-0.03,0.63-0.07l0.05,0.84
			c-0.21,0.08-0.54,0.15-0.96,0.15c-0.51,0-0.92-0.18-1.18-0.47c-0.3-0.34-0.42-0.88-0.42-1.6v-3.32h-0.93v-0.84h0.93v-1.12
			L231.4,41.21z"/>
	</g>
	<g>
		<path class="st2" d="M236.72,45.65c-1.19-0.03-2.54,0.19-2.54,1.37c0,0.73,0.47,1.06,1.02,1.06c0.79,0,1.3-0.5,1.47-1.02
			c0.04-0.11,0.05-0.24,0.05-0.35V45.65z M237.79,47.3c0,0.53,0.02,1.04,0.09,1.46h-0.98l-0.1-0.77h-0.04
			c-0.32,0.48-0.98,0.91-1.83,0.91c-1.21,0-1.83-0.87-1.83-1.75c0-1.47,1.29-2.28,3.6-2.26v-0.13c0-0.5-0.14-1.42-1.36-1.41
			c-0.57,0-1.15,0.16-1.57,0.45l-0.25-0.74c0.5-0.31,1.23-0.53,1.98-0.53c1.84,0,2.29,1.27,2.29,2.49V47.3z"/>
	</g>
	<g>
		<rect x="238.91" y="39.83" class="st2" width="1.09" height="8.92"/>
	</g>
</g>
</svg>
